<?xml version="1.0" encoding="utf-8"?>
<!-- Generator: Adobe Illustrator 16.0.0, SVG Export Plug-In . SVG Version: 6.00 Build 0)  -->
<!DOCTYPE svg PUBLIC "-//W3C//DTD SVG 1.1//EN" "http://www.w3.org/Graphics/SVG/1.1/DTD/svg11.dtd">
<svg version="1.1" id="레이어_1" xmlns="http://www.w3.org/2000/svg" xmlns:xlink="http://www.w3.org/1999/xlink" x="0px"
	 y="0px" width="573.095px" height="171.949px" viewBox="0 0 573.095 171.949" enable-background="new 0 0 573.095 171.949"
	 xml:space="preserve">
<g>
	<g>
		<g>
			<path fill="#183F88" d="M47.109,31.563v17.5h-15V82.5c0,6.771,0.143,10.717,0.43,11.836c0.286,1.121,0.938,2.045,1.953,2.773
				c1.016,0.73,2.252,1.094,3.711,1.094c2.031,0,4.974-0.703,8.828-2.109l1.875,17.031c-5.104,2.188-10.886,3.281-17.344,3.281
				c-3.959,0-7.526-0.664-10.703-1.992c-3.178-1.328-5.508-3.047-6.992-5.156s-2.514-4.961-3.086-8.555
				c-0.469-2.551-0.703-7.707-0.703-15.469V49.063H0v-17.5h10.078V15.078L32.109,2.266v29.297H47.109z"/>
			<path fill="#183F88" d="M255.798,114.531h-20.391v-12.188c-3.387,4.74-7.383,8.27-11.992,10.586s-9.258,3.477-13.945,3.477
				c-9.531,0-17.695-3.84-24.492-11.523c-6.797-7.682-10.195-18.398-10.195-32.148c0-14.063,3.307-24.752,9.922-32.07
				c6.613-7.316,14.973-10.977,25.078-10.977c9.27,0,17.291,3.855,24.063,11.563V0h21.953V114.531z M197.204,71.25
				c0,8.855,1.223,15.262,3.672,19.219c3.541,5.73,8.488,8.594,14.844,8.594c5.051,0,9.348-2.148,12.891-6.445
				c3.541-4.297,5.313-10.715,5.313-19.258c0-9.531-1.719-16.393-5.156-20.586c-3.438-4.191-7.84-6.289-13.203-6.289
				c-5.209,0-9.57,2.07-13.086,6.211S197.204,63.021,197.204,71.25z"/>
			<path fill="#183F88" d="M289.845,56.875l-19.922-3.594c2.238-8.02,6.094-13.957,11.563-17.813
				c5.469-3.854,13.594-5.781,24.375-5.781c9.791,0,17.082,1.16,21.875,3.477c4.791,2.318,8.164,5.262,10.117,8.828
				c1.953,3.568,2.93,10.117,2.93,19.648l-0.234,25.625c0,7.293,0.352,12.67,1.055,16.133c0.703,3.465,2.018,7.176,3.945,11.133
				h-21.719c-0.574-1.457-1.277-3.619-2.109-6.484c-0.365-1.301-0.625-2.16-0.781-2.578c-3.75,3.646-7.762,6.381-12.031,8.203
				c-4.271,1.822-8.828,2.734-13.672,2.734c-8.543,0-15.273-2.316-20.195-6.953c-4.922-4.635-7.383-10.494-7.383-17.578
				c0-4.688,1.119-8.867,3.359-12.539c2.238-3.672,5.377-6.484,9.414-8.438c4.035-1.953,9.855-3.658,17.461-5.117
				c10.26-1.926,17.369-3.723,21.328-5.391v-2.188c0-4.219-1.043-7.227-3.125-9.023c-2.084-1.797-6.016-2.695-11.797-2.695
				c-3.906,0-6.953,0.77-9.141,2.305C292.97,50.326,291.198,53.021,289.845,56.875z M319.22,74.688
				c-2.813,0.938-7.266,2.059-13.359,3.359c-6.094,1.303-10.078,2.578-11.953,3.828c-2.865,2.031-4.297,4.609-4.297,7.734
				c0,3.074,1.145,5.73,3.438,7.969c2.291,2.24,5.207,3.359,8.75,3.359c3.957,0,7.734-1.301,11.328-3.906
				c2.656-1.979,4.4-4.4,5.234-7.266c0.572-1.875,0.859-5.441,0.859-10.703V74.688z"/>
			<path fill="#183F88" d="M348.032,31.563h23.359l19.844,58.906l19.375-58.906h22.734l-29.297,79.844l-5.234,14.453
				c-1.928,4.844-3.764,8.541-5.508,11.094c-1.746,2.551-3.75,4.621-6.016,6.211c-2.266,1.588-5.053,2.824-8.359,3.711
				c-3.309,0.885-7.045,1.328-11.211,1.328c-4.219,0-8.359-0.443-12.422-1.328l-1.953-17.188c3.438,0.676,6.535,1.016,9.297,1.016
				c5.104,0,8.879-1.498,11.328-4.492c2.447-2.996,4.322-6.811,5.625-11.445L348.032,31.563z"/>
			<path fill="#183F88" d="M455.407,20.313V0h21.953v20.313H455.407z M455.407,114.531V31.563h21.953v82.969H455.407z"/>
			<path fill="#183F88" d="M499.032,114.531V97.422l31.094-35.703c5.104-5.832,8.879-9.973,11.328-12.422
				c-2.553,0.156-5.912,0.262-10.078,0.313l-29.297,0.156V31.563h68.594v15.547l-31.719,36.563l-11.172,12.109
				c6.094-0.363,9.869-0.547,11.328-0.547h33.984v19.297H499.032z"/>
		</g>
		<g>
			<path fill="#183F88" d="M114.196,116.52c-6.891,0-13.889-1.338-20.632-4.16C66.303,100.943,53.41,69.479,64.826,42.215
				c11.415-27.262,42.881-40.154,70.143-28.738c10.239,4.287,18.765,11.504,24.655,20.873l-10.158,6.387
				c-4.568-7.264-11.184-12.863-19.132-16.191c-21.157-8.859-45.579,1.146-54.439,22.305c-8.859,21.16,1.146,45.582,22.305,54.441
				c21.159,8.859,45.581-1.146,54.44-22.305l11.068,4.635C155.116,104.141,135.164,116.52,114.196,116.52z"/>
			<g>
				<polygon fill="#183F88" points="138.308,39.121 161.609,57.879 166.206,28.32 				"/>
			</g>
		</g>
		<g>
			<rect x="108.454" y="36.35" fill="#183F88" width="6.875" height="32.527"/>
			
				<rect x="119.748" y="60.219" transform="matrix(-0.6365 0.7713 -0.7713 -0.6365 260.5824 30.1509)" fill="#183F88" width="6.875" height="32.526"/>
		</g>
	</g>
	<text transform="matrix(1 0 0 1 433.3438 165.418)" fill="#183F88" font-family="'SeoulNamsanB'" font-size="40">오늘이즈</text>
</g>
</svg>
